<?xml version="1.0" encoding="utf-8"?>
<!-- Generator: Adobe Illustrator 16.0.0, SVG Export Plug-In . SVG Version: 6.00 Build 0)  -->
<!DOCTYPE svg PUBLIC "-//W3C//DTD SVG 1.1//EN" "http://www.w3.org/Graphics/SVG/1.1/DTD/svg11.dtd">
<svg version="1.1" id="Layer_1" xmlns="http://www.w3.org/2000/svg" xmlns:xlink="http://www.w3.org/1999/xlink" x="0px" y="0px"
	 width="200px" height="100px" viewBox="0 0 200 100" enable-background="new 0 0 200 100" xml:space="preserve">
<g>
	<g>
		<defs>
			<rect id="SVGID_1_" x="19" y="-16" width="162" height="81"/>
		</defs>
		<clipPath id="SVGID_2_">
			<use xlink:href="#SVGID_1_"  overflow="visible"/>
		</clipPath>
		<path clip-path="url(#SVGID_2_)" fill="#FFFFFF" d="M41.713,16.701c2.765,0,4.942-0.733,4.942-2.837V7.37
			c0-2.103-2.215-2.836-4.965-2.836c-2.761,0-4.938,0.733-4.938,2.836v21.389c0,0.606-0.621,0.814-1.456,0.814
			c-0.796,0-1.456-0.208-1.456-0.814V7.732c0-4.244,3.498-5.736,7.85-5.736c4.355,0,7.876,1.492,7.876,5.736v5.771
			c0,4.242-3.484,5.736-7.854,5.736H38.57c-0.548,0-0.735-0.585-0.735-1.269c0-0.735,0.186-1.268,0.735-1.268L41.713,16.701
			L41.713,16.701z"/>
	</g>
	<g>
		<defs>
			<rect id="SVGID_3_" x="19" y="-16" width="162" height="81"/>
		</defs>
		<clipPath id="SVGID_4_">
			<use xlink:href="#SVGID_3_"  overflow="visible"/>
		</clipPath>
		<path clip-path="url(#SVGID_4_)" fill="#FFFFFF" d="M58.996,25.161c0,1.954,1.095,2.75,1.095,3.185
			c0,0.585-1.232,1.418-1.854,1.418c-1.019,0-2.139-2.102-2.139-4.243V1.2c0-0.622,0.647-0.833,1.456-0.833
			c0.833,0,1.443,0.212,1.443,0.833L58.996,25.161L58.996,25.161z"/>
	</g>
	<g>
		<defs>
			<rect id="SVGID_5_" x="19" y="-16" width="162" height="81"/>
		</defs>
		<clipPath id="SVGID_6_">
			<use xlink:href="#SVGID_5_"  overflow="visible"/>
		</clipPath>
		<path clip-path="url(#SVGID_6_)" fill="#FFFFFF" d="M82.519,13.828c0,4.254-1.593,5.299-5.921,5.736l-7.063,0.696v4.318
			c0,2.102,1.951,2.838,4.712,2.838c2.747,0,5.375-0.375,5.375-2.478v-1.381c0-0.609,0.61-0.833,1.444-0.833
			c0.81,0,1.455,0.224,1.455,0.833v1.021c0,4.242-3.708,5.375-7.986,5.375c-4.28,0-7.914-1.492-7.914-5.736V12.805
			c0-4.239,3.808-5.719,8.46-5.719c4.602,0,7.439,1.404,7.439,5.658V13.828z M69.534,17.709l6.815-0.684
			c2.915-0.286,3.271-1.08,3.271-3.197v-1.381c0-2.103-2.25-2.824-5.088-2.824c-2.725,0-4.998,0.722-4.998,2.824V17.709z"/>
	</g>
	<g>
		<defs>
			<rect id="SVGID_7_" x="19" y="-16" width="162" height="81"/>
		</defs>
		<clipPath id="SVGID_8_">
			<use xlink:href="#SVGID_7_"  overflow="visible"/>
		</clipPath>
		<path clip-path="url(#SVGID_8_)" fill="#FFFFFF" d="M105.483,25.049c0,0.625-0.646,0.833-1.441,0.833
			c-0.834,0-1.442-0.208-1.442-0.833V12.995c0-1.991-1.968-2.763-4.543-2.824h-0.399c-2.762,0-4.975,0.721-4.975,2.824v10.014
			c0,2.762,0.721,3.856,2.821,3.856h2.877c4.354,0,7.104,1.48,7.104,5.736v0.137c0,4.253-2.749,5.735-7.104,5.735h-8.235
			c-0.547,0-0.734-0.536-0.734-1.269c0-0.684,0.187-1.269,0.734-1.269h8.235c2.762,0,4.22-0.722,4.22-2.824V32.24
			c0-2.115-1.458-2.836-4.22-2.836h-2.877c-4.239,0-5.719-1.988-5.719-6.395v-9.655c0-4.242,3.504-5.736,7.873-5.736h5.076
			c3.049,0,3.844-1.082,4.295-1.082c0.569,0,1.42,1.231,1.42,1.838c0,0.887-1.551,1.571-3.937,1.757
			c0.621,0.834,0.971,1.879,0.971,3.223L105.483,25.049L105.483,25.049z"/>
	</g>
	<g>
		<defs>
			<rect id="SVGID_9_" x="19" y="-16" width="162" height="81"/>
		</defs>
		<clipPath id="SVGID_10_">
			<use xlink:href="#SVGID_9_"  overflow="visible"/>
		</clipPath>
		<path clip-path="url(#SVGID_10_)" fill="#8C181D" d="M113.054,29.081c0,0.647-0.646,0.871-1.516,0.871
			c-0.925,0-1.569-0.224-1.569-0.871v-2.281c0-0.647,0.645-0.872,1.515-0.872c0.924,0,1.57,0.225,1.57,0.872V29.081z"/>
	</g>
	<g>
		<defs>
			<rect id="SVGID_11_" x="19" y="-16" width="162" height="81"/>
		</defs>
		<clipPath id="SVGID_12_">
			<use xlink:href="#SVGID_11_"  overflow="visible"/>
		</clipPath>
		<path clip-path="url(#SVGID_12_)" fill="#FFFFFF" d="M117.544,12.805c0-4.239,3.43-5.719,7.461-5.719
			c2.439,0,4.653,0.534,6.07,1.914c1.369-1.381,3.583-1.914,6.022-1.914c4.03,0,7.514,1.48,7.514,5.719v15.955
			c0,0.607-0.645,0.814-1.438,0.814c-0.851,0-1.475-0.208-1.475-0.814V12.447c0-2.103-2.062-2.825-4.601-2.825
			s-4.577,0.723-4.577,2.9v16.237c0,0.607-0.626,0.814-1.445,0.814c-0.791,0-1.468-0.208-1.468-0.814V12.447
			c0-2.103-2.068-2.825-4.603-2.825c-2.538,0-4.581,0.723-4.581,2.825v16.312c0,0.607-0.594,0.814-1.439,0.814
			c-0.797,0-1.44-0.208-1.44-0.814V12.805z"/>
	</g>
	<g>
		<defs>
			<rect id="SVGID_13_" x="19" y="-16" width="162" height="81"/>
		</defs>
		<clipPath id="SVGID_14_">
			<use xlink:href="#SVGID_13_"  overflow="visible"/>
		</clipPath>
		<path clip-path="url(#SVGID_14_)" fill="#FFFFFF" d="M157.52,29.403c-4.201,0-6.017-1.493-6.017-5.736v-0.287
			c0-4.254,1.589-5.299,5.825-5.736l6.27-0.622v-4.03c0-2.103-2.196-2.823-4.924-2.823h-4.978c-0.552,0-0.753-0.585-0.753-1.282
			c0-0.722,0.202-1.27,0.753-1.27h4.978c4.353,0,7.836,1.492,7.836,5.736v10.711c0,3.047,1.062,3.845,1.062,4.279
			c0,0.584-1.215,1.418-1.836,1.418c-1.021,0-2.138-2.101-2.138-5.336v-4.864l-6.077,0.622c-2.762,0.288-3.106,1.082-3.106,3.197
			v0.287c0,2.104,0.345,3.198,3.106,3.198h4.258c0.549,0,0.723,0.573,0.723,1.269c0,0.722-0.174,1.269-0.723,1.269L157.52,29.403
			L157.52,29.403z"/>
	</g>
	<g>
		<defs>
			<rect id="SVGID_15_" x="19" y="-16" width="162" height="81"/>
		</defs>
		<clipPath id="SVGID_16_">
			<use xlink:href="#SVGID_15_"  overflow="visible"/>
		</clipPath>
		<path clip-path="url(#SVGID_16_)" fill="#8C181D" d="M167.933,36.65c0.231,0,0.31,0.257,0.31,0.541
			c0,0.309-0.078,0.528-0.31,0.528h-60.048c-0.229,0-0.306-0.241-0.306-0.528c0-0.31,0.076-0.541,0.306-0.541H167.933z"/>
	</g>
	<g>
		<defs>
			<rect id="SVGID_17_" x="19" y="-16" width="162" height="81"/>
		</defs>
		<clipPath id="SVGID_18_">
			<use xlink:href="#SVGID_17_"  overflow="visible"/>
		</clipPath>
		<path clip-path="url(#SVGID_18_)" fill="#FFFFFF" d="M121.647,49.058c0.159,0,0.195,0.168,0.195,0.369
			c0,0.222-0.036,0.38-0.195,0.38h-1.729c-1.257,0-1.711-0.588-1.711-1.885v-5.823c0-0.187,0.211-0.243,0.447-0.243
			c0.242,0,0.416,0.056,0.416,0.243v5.823c0,0.817,0.219,1.136,0.848,1.136H121.647z"/>
	</g>
	<g>
		<defs>
			<rect id="SVGID_19_" x="19" y="-16" width="162" height="81"/>
		</defs>
		<clipPath id="SVGID_20_">
			<use xlink:href="#SVGID_19_"  overflow="visible"/>
		</clipPath>
		<path clip-path="url(#SVGID_20_)" fill="#FFFFFF" d="M133.708,49.695c-1.222,0-1.762-0.437-1.762-1.69v-0.083
			c0-1.241,0.473-1.553,1.688-1.679l1.87-0.186v-1.186c0-0.606-0.638-0.831-1.475-0.831h-1.447c-0.156,0-0.22-0.167-0.22-0.369
			c0-0.221,0.063-0.38,0.22-0.38h1.447c1.309,0,2.333,0.438,2.333,1.69v3.142c0,0.899,0.319,1.137,0.319,1.262
			c0,0.179-0.376,0.422-0.547,0.422c-0.308,0-0.631-0.623-0.631-1.573v-1.429l-1.797,0.173c-0.805,0.099-0.902,0.334-0.902,0.944
			v0.083c0,0.623,0.098,0.943,0.902,0.943h1.254c0.158,0,0.225,0.165,0.225,0.38c0,0.209-0.066,0.368-0.225,0.368h-1.253V49.695z"/>
	</g>
	<g>
		<defs>
			<rect id="SVGID_21_" x="19" y="-16" width="162" height="81"/>
		</defs>
		<clipPath id="SVGID_22_">
			<use xlink:href="#SVGID_21_"  overflow="visible"/>
		</clipPath>
		<path clip-path="url(#SVGID_22_)" fill="#FFFFFF" d="M148.474,43.991c-0.158,0-0.224-0.179-0.224-0.381
			c0-0.208,0.065-0.367,0.224-0.367h0.902c1.308,0,2.334,0.436,2.334,1.677v3.196c0,1.255-1.063,1.69-2.338,1.69
			c-1.275,0-2.3-0.437-2.3-1.69V41.35c0-0.172,0.207-0.243,0.412-0.243c0.276,0,0.445,0.071,0.445,0.243v6.876
			c0,0.625,0.639,0.832,1.442,0.832c0.833,0,1.479-0.206,1.479-0.832v-3.404c0-0.624-0.637-0.832-1.475-0.832H148.474z"/>
	</g>
	<g>
		<defs>
			<rect id="SVGID_23_" x="19" y="-16" width="162" height="81"/>
		</defs>
		<clipPath id="SVGID_24_">
			<use xlink:href="#SVGID_23_"  overflow="visible"/>
		</clipPath>
		<path clip-path="url(#SVGID_24_)" fill="#FFFFFF" d="M165.895,44.67c0-0.631-0.613-0.839-1.364-0.839
			c-0.714,0-1.34,0.208-1.34,0.798v0.235c0,0.806,0.173,0.903,0.791,1.04l0.905,0.236c1.229,0.313,1.881,0.479,1.881,1.706v0.388
			c0,1.192-1.103,1.573-2.31,1.573c-1.19,0-2.295-0.305-2.295-1.698v-0.345c0-0.176,0.104-0.237,0.418-0.237
			c0.157,0,0.405,0.062,0.405,0.271v0.479c0,0.601,0.599,0.782,1.479,0.782c0.78,0,1.447-0.158,1.447-0.748v-0.562
			c0-0.457-0.319-0.657-1.109-0.858l-0.91-0.235c-1.231-0.293-1.555-0.521-1.555-1.823v-0.125c0.051-1.213,1-1.622,2.146-1.622
			c1.32,0,2.266,0.438,2.266,1.665v0.368c0,0.178-0.16,0.228-0.383,0.228c-0.254,0-0.472-0.05-0.472-0.265V44.67L165.895,44.67z"/>
	</g>
	<g>
		<defs>
			<rect id="SVGID_25_" x="19" y="-16" width="162" height="81"/>
		</defs>
		<clipPath id="SVGID_26_">
			<use xlink:href="#SVGID_25_"  overflow="visible"/>
		</clipPath>
		<path clip-path="url(#SVGID_26_)" fill="#8C181D" d="M86.113,36.65c0.232,0,0.309,0.257,0.309,0.541
			c0,0.309-0.077,0.528-0.309,0.528H32.538c-0.22,0-0.297-0.241-0.297-0.528c0-0.31,0.078-0.541,0.297-0.541H86.113z"/>
	</g>
</g>
</svg>
