<?xml version="1.0" encoding="utf-8"?>
<!-- Generator: Adobe Illustrator 16.0.0, SVG Export Plug-In . SVG Version: 6.00 Build 0)  -->
<!DOCTYPE svg PUBLIC "-//W3C//DTD SVG 1.1//EN" "http://www.w3.org/Graphics/SVG/1.1/DTD/svg11.dtd">
<svg version="1.1" id="Layer_1" xmlns="http://www.w3.org/2000/svg" xmlns:xlink="http://www.w3.org/1999/xlink" x="0px" y="0px"
	 width="200px" height="100px" viewBox="0 0 200 100" enable-background="new 0 0 200 100" xml:space="preserve">
<g>
	<defs>
		<rect id="SVGID_1_" x="24" y="-12" width="150" height="75"/>
	</defs>
	<clipPath id="SVGID_2_">
		<use xlink:href="#SVGID_1_"  overflow="visible"/>
	</clipPath>
	<path clip-path="url(#SVGID_2_)" d="M45.031,18.279c2.56,0,4.576-0.679,4.576-2.627V9.639c0-1.947-2.051-2.626-4.597-2.626
		c-2.557,0-4.573,0.679-4.573,2.626v19.805c0,0.561-0.575,0.754-1.348,0.754c-0.737,0-1.348-0.193-1.348-0.754V9.974
		c0-3.929,3.239-5.311,7.269-5.311c4.032,0,7.292,1.382,7.292,5.311v5.344c0,3.928-3.226,5.311-7.272,5.311H42.12
		c-0.507,0-0.68-0.542-0.68-1.175c0-0.681,0.172-1.174,0.68-1.174H45.031z"/>
	<path clip-path="url(#SVGID_2_)" d="M61.033,26.112c0,1.809,1.014,2.546,1.014,2.949c0,0.542-1.141,1.313-1.716,1.313
		c-0.944,0-1.981-1.946-1.981-3.928V3.926c0-0.576,0.599-0.771,1.348-0.771c0.771,0,1.336,0.196,1.336,0.771V26.112z"/>
	<path clip-path="url(#SVGID_2_)" d="M82.814,15.618c0,3.939-1.475,4.907-5.483,5.311l-6.54,0.645v3.998
		c0,1.946,1.806,2.628,4.363,2.628c2.543,0,4.977-0.347,4.977-2.294v-1.279c0-0.564,0.565-0.771,1.337-0.771
		c0.75,0,1.347,0.207,1.347,0.771v0.945c0,3.928-3.433,4.977-7.395,4.977c-3.963,0-7.327-1.382-7.327-5.311V14.671
		c0-3.925,3.525-5.295,7.833-5.295c4.261,0,6.888,1.3,6.888,5.239V15.618z M70.791,19.212l6.31-0.633
		c2.699-0.265,3.029-1,3.029-2.96v-1.279c0-1.947-2.084-2.615-4.711-2.615c-2.523,0-4.628,0.668-4.628,2.615V19.212z"/>
	<path clip-path="url(#SVGID_2_)" d="M104.076,26.009c0,0.579-0.598,0.771-1.335,0.771c-0.772,0-1.335-0.192-1.335-0.771V14.847
		c0-1.843-1.822-2.558-4.207-2.614h-0.368c-2.557,0-4.607,0.667-4.607,2.614v9.272c0,2.557,0.668,3.571,2.612,3.571H97.5
		c4.031,0,6.576,1.371,6.576,5.311v0.127c0,3.938-2.545,5.31-6.576,5.31h-7.626c-0.507,0-0.68-0.496-0.68-1.175
		c0-0.633,0.173-1.175,0.68-1.175H97.5c2.557,0,3.906-0.668,3.906-2.615v-0.806c0-1.958-1.35-2.626-3.906-2.626h-2.664
		c-3.925,0-5.295-1.841-5.295-5.921V15.18c0-3.928,3.244-5.311,7.29-5.311h4.7c2.822,0,3.559-1.002,3.977-1.002
		c0.527,0,1.314,1.14,1.314,1.702c0,0.821-1.436,1.455-3.644,1.627c0.575,0.772,0.897,1.74,0.897,2.984V26.009z"/>
	<path clip-path="url(#SVGID_2_)" fill="#8C181D" d="M111.087,29.741c0,0.6-0.599,0.807-1.404,0.807
		c-0.856,0-1.452-0.207-1.452-0.807v-2.112c0-0.599,0.596-0.807,1.402-0.807c0.855,0,1.454,0.208,1.454,0.807V29.741z"/>
	<path clip-path="url(#SVGID_2_)" d="M115.244,14.671c0-3.925,3.176-5.295,6.908-5.295c2.259,0,4.309,0.494,5.622,1.772
		c1.267-1.279,3.317-1.772,5.575-1.772c3.732,0,6.958,1.37,6.958,5.295v14.773c0,0.562-0.597,0.754-1.333,0.754
		c-0.787,0-1.365-0.192-1.365-0.754V14.34c0-1.947-1.909-2.616-4.26-2.616c-2.35,0-4.238,0.669-4.238,2.685v15.035
		c0,0.562-0.579,0.754-1.337,0.754c-0.733,0-1.36-0.192-1.36-0.754V14.34c0-1.947-1.914-2.616-4.262-2.616
		c-2.35,0-4.241,0.669-4.241,2.616v15.104c0,0.562-0.55,0.754-1.333,0.754c-0.738,0-1.334-0.192-1.334-0.754V14.671z"/>
	<path clip-path="url(#SVGID_2_)" d="M152.259,30.04c-3.89,0-5.571-1.382-5.571-5.311v-0.265c0-3.939,1.471-4.907,5.394-5.311
		l5.804-0.576v-3.731c0-1.947-2.032-2.614-4.559-2.614h-4.608c-0.511,0-0.698-0.542-0.698-1.187c0-0.668,0.188-1.176,0.698-1.176
		h4.608c4.031,0,7.256,1.382,7.256,5.311v9.918c0,2.822,0.984,3.56,0.984,3.962c0,0.541-1.125,1.313-1.701,1.313
		c-0.945,0-1.98-1.946-1.98-4.941v-4.504l-5.626,0.576c-2.558,0.266-2.876,1.002-2.876,2.96v0.265c0,1.948,0.318,2.961,2.876,2.961
		h3.942c0.508,0,0.669,0.53,0.669,1.175c0,0.668-0.161,1.174-0.669,1.174H152.259z"/>
	<path clip-path="url(#SVGID_2_)" fill="#8C181D" d="M161.9,36.75c0.215,0,0.287,0.238,0.287,0.501c0,0.286-0.072,0.489-0.287,0.489
		h-55.6c-0.212,0-0.283-0.224-0.283-0.489c0-0.287,0.071-0.501,0.283-0.501H161.9z"/>
	<path clip-path="url(#SVGID_2_)" d="M119.045,48.239c0.148,0,0.181,0.155,0.181,0.341c0,0.205-0.032,0.352-0.181,0.352h-1.602
		c-1.164,0-1.583-0.544-1.583-1.745v-5.392c0-0.173,0.194-0.225,0.414-0.225c0.224,0,0.384,0.052,0.384,0.225v5.392
		c0,0.757,0.204,1.052,0.785,1.052H119.045z"/>
	<path clip-path="url(#SVGID_2_)" d="M130.211,48.829c-1.131,0-1.631-0.404-1.631-1.565v-0.077c0-1.149,0.438-1.438,1.563-1.554
		l1.731-0.172v-1.098c0-0.562-0.591-0.77-1.365-0.77h-1.34c-0.146,0-0.204-0.154-0.204-0.341c0-0.205,0.058-0.352,0.204-0.352h1.34
		c1.211,0,2.16,0.405,2.16,1.565v2.909c0,0.833,0.296,1.052,0.296,1.168c0,0.166-0.349,0.391-0.507,0.391
		c-0.285,0-0.584-0.577-0.584-1.457v-1.322l-1.664,0.159c-0.745,0.092-0.835,0.31-0.835,0.875v0.077c0,0.577,0.09,0.873,0.835,0.873
		h1.161c0.147,0,0.208,0.153,0.208,0.352c0,0.193-0.061,0.341-0.208,0.341H130.211z"/>
	<path clip-path="url(#SVGID_2_)" d="M143.883,43.547c-0.147,0-0.207-0.166-0.207-0.353c0-0.193,0.06-0.34,0.207-0.34h0.836
		c1.211,0,2.161,0.404,2.161,1.553v2.959c0,1.162-0.985,1.565-2.165,1.565c-1.181,0-2.13-0.404-2.13-1.565v-6.264
		c0-0.159,0.193-0.225,0.382-0.225c0.256,0,0.412,0.066,0.412,0.225v6.367c0,0.579,0.592,0.771,1.336,0.771
		c0.772,0,1.369-0.191,1.369-0.771v-3.152c0-0.577-0.59-0.77-1.365-0.77H143.883z"/>
	<path clip-path="url(#SVGID_2_)" d="M160.013,44.176c0-0.584-0.567-0.777-1.263-0.777c-0.661,0-1.24,0.193-1.24,0.739v0.218
		c0,0.746,0.16,0.836,0.732,0.963l0.838,0.219c1.139,0.289,1.742,0.443,1.742,1.579v0.359c0,1.104-1.021,1.457-2.139,1.457
		c-1.102,0-2.125-0.282-2.125-1.572v-0.32c0-0.162,0.096-0.219,0.387-0.219c0.146,0,0.375,0.057,0.375,0.25v0.443
		c0,0.556,0.555,0.725,1.37,0.725c0.722,0,1.34-0.147,1.34-0.693v-0.52c0-0.423-0.296-0.609-1.027-0.795l-0.843-0.218
		c-1.141-0.271-1.439-0.482-1.439-1.688v-0.116c0.047-1.123,0.926-1.502,1.986-1.502c1.222,0,2.098,0.405,2.098,1.541v0.341
		c0,0.165-0.148,0.211-0.355,0.211c-0.235,0-0.437-0.046-0.437-0.245V44.176z"/>
	<path clip-path="url(#SVGID_2_)" fill="#8C181D" d="M86.142,36.75c0.215,0,0.286,0.238,0.286,0.501
		c0,0.286-0.071,0.489-0.286,0.489H36.535c-0.203,0-0.275-0.224-0.275-0.489c0-0.287,0.072-0.501,0.275-0.501H86.142z"/>
</g>
</svg>
